<?xml version='1.0' encoding='utf-8'?>
<!-- Generator: Adobe Illustrator 22.0.0, SVG Export Plug-In . SVG Version: 6.00 Build 0)  -->
<svg baseProfile="tiny" id="Layer_1" version="1.1" viewBox="0 0 20 20" x="0px" xml:space="preserve" xmlns="http://www.w3.org/2000/svg" xmlns:xlink="http://www.w3.org/1999/xlink" y="0px">
 <path d="M17.4,6.1&#xa;&#x9;c0.6,1.2,0.9,2.5,0.9,3.9c0,4.6-3.7,8.3-8.3,8.3S1.7,14.6,1.7,10S5.4,1.7,10,1.7c1.5,0,2.9,0.4,4.1,1.1" fill="none" stroke="#aa0000" stroke-linecap="round" stroke-linejoin="round" stroke-opacity="1" stroke-width="1.25"/>
 <path d="M14.8,8.6&#xa;&#x9;C14.9,9.1,15,9.5,15,10c0,2.8-2.2,5-5,5s-5-2.2-5-5s2.2-5,5-5" fill="none" stroke="#aa0000" stroke-linecap="round" stroke-linejoin="round" stroke-opacity="1" stroke-width="1.25"/>
 <circle cx="10" cy="10" fill="none" r="1.7" stroke="#aa0000" stroke-linecap="round" stroke-linejoin="round" stroke-opacity="1" stroke-width="1.25"/>
 <polyline fill="none" points="18.2,2.1 &#xa;&#x9;13.6,6.7 12.1,5.2 " stroke="#aa0000" stroke-linecap="round" stroke-linejoin="round" stroke-opacity="1" stroke-width="1.25"/>
</svg>
